<svg width="629" height="520" viewBox="0 0 629 520" fill="none" xmlns="http://www.w3.org/2000/svg">
<g clip-path="url(#clip0_1_15)">
<path fill-rule="evenodd" clip-rule="evenodd" d="M285.956 249.512C271.101 271.527 249.259 287.884 223.964 295.937C198.67 303.99 171.4 303.269 146.566 293.889C148.736 286.443 151.582 278.2 158.504 274.796C163.726 272.262 169.936 273.191 175.616 271.948C181.296 270.705 187.096 265.129 184.708 259.879C174.723 259.589 164.956 256.889 156.237 252.01C155.308 246.579 160.735 241.824 166.162 240.992C171.588 240.159 177.015 242.078 182.441 243.224C187.868 244.371 194.018 244.516 198.203 240.992C201.35 238.361 202.701 234.269 204.232 230.552C205.916 226.53 207.958 222.669 210.334 219.014C213.228 214.512 216.689 210.276 221.344 207.633C225.999 204.99 231.944 204.326 236.586 206.909C242.013 209.854 244.449 216.274 245.583 222.273C246.716 228.271 247.03 234.679 249.876 240.11C253.65 247.352 261.549 251.805 269.616 252.578C274.85 253.024 280.686 250.236 285.956 249.512Z" fill="#C4D1D6"/>
<path d="M111.872 444.232C106.711 447.104 103.008 452.04 104.383 456.819C106.108 462.854 114.633 466.125 122.363 467.971C139.107 471.91 156.358 473.234 173.506 471.893C189.182 470.687 204.329 467.271 219.776 465.099C238.02 462.545 256.461 461.696 274.862 462.564C285.124 463.059 295.869 464.23 304.153 468.9C307.94 471.049 311.232 474.174 311.292 477.747C311.389 484.071 302.308 487.655 295.037 490.649C287.765 493.642 280.252 500.183 284.859 505.469C286.42 506.997 288.303 508.156 290.37 508.86C302.863 513.966 317.31 515.281 331.371 516.162C350.508 517.369 369.706 517.924 388.904 518.298C422.814 518.974 457.195 519.022 489.971 512.59C507.073 509.277 523.756 504.08 539.715 497.093C562.41 487.076 584.092 470.928 583.791 450.869C583.829 446.671 582.565 442.564 580.173 439.114C576.555 434.057 570.043 430.521 563.435 427.673C544.599 419.587 523.182 415.785 501.934 413.058C464.961 408.315 426.83 406.528 390.291 412.502C357.093 417.921 325.57 429.664 291.612 430.908C270.364 431.692 249.236 428.289 228.374 424.958C217.907 423.28 207.307 421.602 196.659 421.989C180.247 422.568 165.86 427.89 151.534 433.345C139.065 438.101 123.183 437.92 111.872 444.232Z" fill="#F2F2F2"/>
<path fill-rule="evenodd" clip-rule="evenodd" d="M615.795 300.901C613.942 292.917 611.056 285.208 607.209 277.971C605.569 274.893 603.736 271.828 601.891 268.967C598.86 264.051 595.516 259.335 591.882 254.847C587.794 249.935 583.706 245.191 579.413 240.738C575.53 236.442 571.442 232.29 567.354 228.259C566.148 227.052 565.099 225.845 563.869 224.771H563.664C547.927 208.816 532.395 192.656 522.579 172.875C512.57 152.358 509.507 128.896 510.11 106.182C510.52 91.458 512.16 75.0805 503.164 63.2168C494.988 52.3548 480.252 48.9031 466.782 47.2618C458.401 46.2359 449.61 45.8376 441.639 48.2876C430.785 51.3531 422.428 59.3306 414.252 66.9099C401.578 78.9788 388.928 90.8425 376.23 102.706C365.184 113.134 353.535 123.984 338.847 127.87C317.141 133.59 294.892 123.163 275.272 112.518C255.652 101.656 234.187 90.227 212.107 93.7028C196.78 95.9597 183.695 105.361 171.841 115.596C154.235 130.694 137.473 153.818 145.914 175.494C151.643 172.428 144.492 180.816 135.7 193.5C132.227 198.618 128.537 204.133 125.269 210.071C124.876 210.55 124.596 211.111 124.449 211.712C122.857 214.563 121.423 217.501 120.156 220.511C113.386 237.376 110.589 255.576 111.98 273.698C112.652 282.614 114.158 291.447 116.478 300.081C119.174 311.009 123.591 321.438 129.562 330.977C133.464 336.955 138.139 342.389 143.467 347.137C155.031 357.558 169.129 364.754 184.347 368.004C195.493 370.522 207.027 370.8 218.281 368.825C231.968 366.568 245.052 360.848 258.956 359.001C270.276 357.542 281.779 358.58 292.655 362.043C303.532 365.506 313.519 371.31 321.916 379.047C322.296 379.269 322.642 379.546 322.941 379.868C327.029 383.754 330.707 388.051 334.385 392.142C334.879 392.736 335.423 393.286 336.013 393.784C338.249 396.252 340.642 398.574 343.176 400.735C355.645 411.368 371.793 416.69 387.795 420.166C405.377 424.052 423.357 425.694 441.349 426.72C444.412 426.925 447.282 426.925 450.345 427.13C454.433 427.335 458.726 427.335 462.814 427.54C464.647 427.54 466.492 427.745 468.132 427.745C502.464 428.349 538.244 426.539 566.45 407.482C569.837 405.262 573.061 402.801 576.097 400.12C584.054 392.984 590.999 384.794 596.742 375.777C600.876 369.602 604.505 363.104 607.595 356.346C613.118 344.277 617.242 331.593 617.616 318.498C617.727 312.58 617.116 306.671 615.795 300.901ZM204.582 308.263C202.79 309.488 200.874 310.52 198.866 311.341C193.548 313.176 187.615 313.586 182.104 315.227C181.489 315.432 180.669 315.831 179.692 316.241C172.746 319.729 159.047 329.131 157.612 320.948C157.009 317.677 161.7 312.355 166.403 307.853C169.888 304.172 173.566 301.107 175.194 299.405L178.257 296.339C179.669 295.071 181.172 293.91 182.755 292.864C188.688 288.772 195.839 286.527 202.387 288.772C204.199 289.351 205.82 290.41 207.078 291.838C207.488 292.248 207.693 292.453 207.693 292.864C208.542 293.71 209.187 294.739 209.578 295.873C209.968 297.007 210.095 298.215 209.948 299.405C209.635 302.929 207.416 306.019 204.521 308.263H204.582ZM454.313 142.413C452.878 152.852 449.815 164.511 440.409 169.218C432.232 173.309 422.633 170.654 413.879 167.782C407.946 165.947 401.82 164.101 395.887 162.254C390.773 160.625 384.852 158.163 384.032 152.852C383.622 149.377 385.865 145.889 388.735 143.644C391.593 141.592 395.067 140.373 398.13 138.732C407.536 134.23 415.712 114.184 423.454 112.748C431.412 111.034 444.497 130.344 451.008 134.99C452.32 135.767 453.382 136.902 454.071 138.261C454.577 139.587 454.661 141.037 454.313 142.413Z" fill="#F2F2F2"/>
<path d="M270.123 413.359C262.802 413.378 255.508 412.465 248.416 410.644C241.162 408.835 234.242 405.881 227.916 401.894C221.048 397.27 214.914 391.64 209.719 385.191C196.857 369.622 187.728 351.312 183.032 331.665C174.253 295.688 183.659 263.681 192.679 232.7C198.709 212.183 212.058 195.287 224.974 179.006C233.946 167.673 243.219 155.954 249.912 143.161C253.216 136.849 256.134 129.97 258.956 123.32C266.77 104.915 274.838 85.9063 292.082 76.1667C307.952 67.1996 327.053 68.6961 345.347 71.0133C354.91 72.2202 364.219 73.5719 372.986 76.7098C381.753 79.8478 389.869 84.7356 397.671 89.4666C402.254 92.2425 407.005 95.1149 411.829 97.6011C433.993 108.994 459.546 113.037 483.833 116.211C512.365 119.953 544.647 124.177 565.123 145.334C586.745 167.685 588.035 206.595 567.849 230.299C555.79 244.528 536.29 254.243 511.545 258.395C499.076 260.483 486.221 261.171 473.836 261.847C465.323 262.293 456.544 262.764 447.945 263.693C438.117 264.743 426.758 266.553 416.942 271.984C397.816 282.545 388.675 303.774 379.836 324.291C377.328 330.12 374.735 336.155 371.961 341.803C359.902 366.399 342.598 385.987 321.977 398.442C306.357 408.015 288.437 413.17 270.123 413.359ZM322.7 70.4823C312.136 70.4823 301.886 72.0995 292.782 77.2409C275.899 86.7753 267.916 105.603 260.222 123.815C257.388 130.489 254.458 137.392 251.13 143.74C244.377 156.642 235.079 168.397 226.071 179.778C213.228 196.023 199.939 212.811 193.994 233.074C184.95 263.874 175.592 295.724 184.347 331.375C189.005 350.84 198.051 368.979 210.792 384.406C215.903 390.765 221.945 396.315 228.712 400.868C234.918 404.787 241.708 407.692 248.826 409.473C272.305 415.508 298.823 411.163 321.555 397.404C341.971 385.07 359.094 365.663 371.069 341.284C373.843 335.66 376.423 329.638 378.932 323.832C387.855 303.11 397.02 281.688 416.556 270.934C426.565 265.395 438.081 263.56 448.018 262.486C456.652 261.557 465.455 261.086 473.969 260.628C486.354 259.964 499.148 259.276 511.557 257.2C536.001 253.097 555.223 243.514 567.137 229.514C586.902 206.269 585.672 168.095 564.448 146.166C544.273 125.323 512.22 121.123 483.942 117.43C459.498 114.232 433.812 110.189 411.479 98.6752C406.655 96.177 401.832 93.2925 397.249 90.5046C389.471 85.8098 381.44 80.946 372.781 77.8443C364.123 74.7426 354.898 73.415 345.407 72.2202C337.862 71.1611 330.258 70.5806 322.64 70.4823H322.7Z" fill="#A6D7FF"/>
<path fill-rule="evenodd" clip-rule="evenodd" d="M306.059 183.23V183.568C306.056 188.003 305.811 192.435 305.323 196.844C303.26 215.721 296.606 233.804 285.944 249.512C271.096 271.535 249.254 287.898 223.956 295.949C198.658 304.001 171.385 303.271 146.554 293.877C125.325 285.807 106.873 271.78 93.4101 253.477C79.9476 235.174 72.0464 213.373 70.654 190.688C70.5093 188.275 70.461 185.933 70.461 183.556C70.4499 168.072 73.4882 152.738 79.4021 138.43C85.316 124.123 93.9896 111.122 104.927 100.171C115.864 89.2201 128.851 80.5341 143.145 74.6095C157.438 68.6849 172.759 65.6379 188.23 65.6427C195.419 65.6328 202.594 66.2995 209.659 67.634C226.81 70.8216 243.043 77.7741 257.188 87.9912C271.334 98.2084 283.041 111.436 291.467 126.723C297.26 137.194 301.397 148.5 303.731 160.239C305.29 167.803 306.07 175.507 306.059 183.23Z" fill="url(#paint0_linear_1_15)"/>
<path opacity="0.5" fill-rule="evenodd" clip-rule="evenodd" d="M306.059 183.025V183.363C306.056 187.798 305.811 192.23 305.323 196.638C303.26 215.515 296.606 233.599 285.944 249.307C272.169 269.729 252.348 285.32 229.265 293.89C206.183 302.461 180.998 303.58 157.247 297.092C133.496 290.604 112.372 276.834 96.8409 257.715C81.31 238.596 72.1524 215.09 70.654 190.495C78.6491 193.995 86.0172 199.04 93.4817 203.687C121.109 221.102 152.173 234.438 184.793 235.947C217.413 237.455 251.672 225.857 272.317 200.488C273.294 199.281 274.162 198.075 275.031 196.868C279.809 190.269 283.674 183.055 286.523 175.421C288.848 169.357 290.538 163.068 291.564 156.654C292.135 153.394 292.537 150.107 292.77 146.806C293.324 139.988 292.885 133.125 291.467 126.434C297.26 136.904 301.397 148.21 303.731 159.949C305.296 167.541 306.076 175.273 306.059 183.025Z" fill="url(#paint1_linear_1_15)"/>
<path fill-rule="evenodd" clip-rule="evenodd" d="M303.731 160.19C299.541 159.671 295.444 158.561 291.564 156.896C286.861 155.042 282.695 152.043 279.444 148.17C276.635 144.766 274.621 140.699 271.063 138.128C267.506 135.558 261.513 135.715 259.764 139.77C259.04 141.471 259.282 143.39 259.282 145.297C259.327 150.15 257.795 154.885 254.916 158.79C249.104 159.804 244.353 152.575 238.492 153.359C233.668 153.987 231.256 159.611 226.807 161.699C221.983 163.98 216.388 161.409 211.685 158.935C210.428 158.349 209.319 157.487 208.441 156.413C207.93 155.382 207.759 154.216 207.952 153.082C208.145 151.948 208.692 150.904 209.514 150.101C211.199 148.536 213.196 147.347 215.375 146.613C222.61 143.704 229.665 140.699 236.84 137.73C242.073 135.509 248.38 131.478 247.018 125.951C245.956 121.341 238.685 120.073 236.164 124.056C235.489 125.178 235.103 126.47 234.03 127.206C233.11 127.749 232.043 127.99 230.979 127.894C224.901 127.853 218.879 126.733 213.192 124.587C208.585 122.849 203.448 118.625 205.293 114.063L218.715 112.023C219.394 112.018 220.066 111.873 220.688 111.599C221.31 111.326 221.869 110.928 222.333 110.43C222.774 109.564 222.926 108.578 222.767 107.618C221.79 99.858 212.975 95.7787 205.173 94.9097C197.37 94.0408 188.977 94.6683 182.393 90.396C181.795 90.045 181.319 89.5183 181.03 88.8873C180.905 88.4896 180.862 88.0706 180.903 87.6557C180.945 87.2407 181.07 86.8386 181.272 86.4736C183.358 81.815 188.013 78.8581 192.474 76.4805C197.515 73.8133 203.617 70.3254 209.731 67.6582C226.867 70.853 243.084 77.8063 257.216 88.0187C271.349 98.2312 283.046 111.449 291.467 126.723C297.256 137.179 301.393 148.468 303.731 160.19Z" fill="url(#paint2_linear_1_15)"/>
<path fill-rule="evenodd" clip-rule="evenodd" d="M154.935 157.089C156.201 162.363 155.176 168.494 151.124 172.09C147.76 175.095 143.02 175.844 138.739 177.28C129.647 180.333 121.133 189.047 123.135 198.437C123.75 201.297 125.281 203.952 125.426 206.885C125.691 212.219 121.121 216.769 116.092 218.531C114.564 219.149 112.9 219.349 111.269 219.111C109.77 218.717 108.389 217.967 107.241 216.926C103.954 214.178 101.388 210.668 99.7652 206.701C98.1427 202.734 97.5132 198.43 97.9315 194.164C98.2043 192.603 98.3094 191.017 98.2451 189.433C97.6662 184.292 92.3964 181.287 88.9234 177.449C85.8025 173.76 84.1018 169.076 84.1283 164.243C84.1549 159.409 85.9069 154.745 89.0681 151.09C91.9985 147.904 95.9177 145.768 98.9083 142.642C101.899 139.516 103.925 135.328 106.662 131.78C115.972 119.808 122.339 129.97 132.264 133.409C142.996 137.175 152.089 145.309 154.935 157.089Z" fill="url(#paint3_linear_1_15)"/>
<path fill-rule="evenodd" clip-rule="evenodd" d="M306.059 183.23V183.568C306.056 188.003 305.811 192.435 305.323 196.844C300.668 200.235 293.204 201.538 291.178 207.126C289.863 210.747 291.178 215.321 288.465 217.892C285.992 220.124 282.158 219.099 279.058 217.892C278.482 217.72 277.951 217.424 277.503 217.023C276.152 215.707 277.021 213.523 277.648 211.785C278.465 209.318 278.654 206.685 278.197 204.127C277.74 201.568 276.652 199.164 275.031 197.133C273.97 195.721 272.619 194.563 271.883 192.957C270.967 190.676 271.449 188.13 272.076 185.716C273.632 179.271 279.589 175.578 286.185 175.626H286.523C290.202 175.827 293.822 176.643 297.231 178.04C300.444 179.046 303.401 180.734 305.902 182.988L306.059 183.23Z" fill="url(#paint4_linear_1_15)"/>
<path fill-rule="evenodd" clip-rule="evenodd" d="M143.997 202.637C143.893 203.361 143.955 204.1 144.178 204.797C144.586 205.622 145.217 206.316 145.999 206.8C151.401 210.626 158.323 211.507 164.944 211.628C166.046 211.737 167.158 211.549 168.163 211.085C169.9 210.071 170.274 207.766 170.467 205.762C170.633 205.007 170.517 204.217 170.141 203.542C169.778 203.135 169.311 202.835 168.791 202.673C166.13 201.596 163.334 200.889 160.482 200.573C159.439 200.499 158.403 200.345 157.383 200.114C154.115 199.221 151.112 192.318 148.941 192.197C145.914 192.016 144.178 200.512 143.997 202.637Z" fill="#C4D1D6"/>
<path fill-rule="evenodd" clip-rule="evenodd" d="M159.445 85.2788C157.269 88.1386 154.126 90.1078 150.605 90.8184C144.757 92.0253 138.667 90.0942 132.879 91.3373C126.777 92.6287 121.459 97.3718 115.248 96.9735C113.386 96.824 111.567 96.3331 109.882 95.5252C123.806 83.0823 140.495 74.1451 158.564 69.4564C159.797 71.202 160.772 73.1166 161.459 75.1409C161.894 76.8745 161.939 78.6833 161.591 80.4365C161.243 82.1897 160.51 83.8437 159.445 85.2788Z" fill="url(#paint5_linear_1_15)"/>
<path fill-rule="evenodd" clip-rule="evenodd" d="M124.208 282.557C108.335 272.257 95.1804 258.276 85.8604 241.8C88.4411 241.909 91.1302 242.162 92.6256 241.8C97.3286 240.448 102.393 238.59 106.891 240.509C111.848 242.621 113.813 248.414 117.13 252.71C119.936 256.281 123.811 258.857 128.188 260.06C129.238 260.215 130.233 260.63 131.082 261.267C131.906 262.185 132.338 263.389 132.288 264.622C132.468 268.04 131.828 271.451 130.423 274.571C129.017 277.691 126.886 280.429 124.208 282.557Z" fill="#C4D1D6"/>
<path d="M146.566 87.1736C150.016 87.1736 152.812 84.3746 152.812 80.9219C152.812 77.4692 150.016 74.6702 146.566 74.6702C143.116 74.6702 140.319 77.4692 140.319 80.9219C140.319 84.3746 143.116 87.1736 146.566 87.1736Z" fill="white"/>
<path d="M146.566 84.277C148.417 84.277 149.918 82.7749 149.918 80.9219C149.918 79.0689 148.417 77.5667 146.566 77.5667C144.714 77.5667 143.213 79.0689 143.213 80.9219C143.213 82.7749 144.714 84.277 146.566 84.277Z" fill="#F97068"/>
<path d="M215.29 89.4787C218.74 89.4787 221.537 86.6797 221.537 83.227C221.537 79.7743 218.74 76.9753 215.29 76.9753C211.84 76.9753 209.044 79.7743 209.044 83.227C209.044 86.6797 211.84 89.4787 215.29 89.4787Z" fill="white"/>
<path d="M215.29 86.5822C217.142 86.5822 218.643 85.08 218.643 83.227C218.643 81.374 217.142 79.8719 215.29 79.8719C213.439 79.8719 211.938 81.374 211.938 83.227C211.938 85.08 213.439 86.5822 215.29 86.5822Z" fill="#F97068"/>
<path fill-rule="evenodd" clip-rule="evenodd" d="M272.764 118.83C272.764 120.069 272.397 121.28 271.709 122.31C271.021 123.34 270.044 124.143 268.9 124.617C267.756 125.091 266.498 125.215 265.284 124.974C264.07 124.732 262.955 124.135 262.079 123.259C261.204 122.383 260.608 121.267 260.367 120.052C260.125 118.837 260.249 117.578 260.723 116.433C261.196 115.289 261.999 114.31 263.028 113.622C264.057 112.934 265.267 112.567 266.505 112.567C267.327 112.565 268.142 112.726 268.902 113.04C269.662 113.354 270.353 113.816 270.934 114.398C271.516 114.98 271.977 115.671 272.29 116.431C272.604 117.192 272.765 118.007 272.764 118.83Z" fill="white"/>
<path d="M266.505 122.185C268.356 122.185 269.857 120.683 269.857 118.83C269.857 116.977 268.356 115.475 266.505 115.475C264.654 115.475 263.153 116.977 263.153 118.83C263.153 120.683 264.654 122.185 266.505 122.185Z" fill="#F97068"/>
<path fill-rule="evenodd" clip-rule="evenodd" d="M296.448 189.373C296.45 190.612 296.085 191.824 295.399 192.856C294.712 193.888 293.736 194.692 292.592 195.168C291.449 195.644 290.19 195.77 288.975 195.53C287.761 195.289 286.644 194.694 285.768 193.818C284.891 192.943 284.294 191.827 284.051 190.611C283.809 189.396 283.932 188.136 284.406 186.991C284.879 185.845 285.681 184.866 286.711 184.178C287.74 183.489 288.951 183.121 290.189 183.121C291.847 183.121 293.437 183.779 294.61 184.952C295.784 186.124 296.444 187.714 296.448 189.373Z" fill="white"/>
<path d="M290.189 192.728C292.04 192.728 293.541 191.226 293.541 189.373C293.541 187.52 292.04 186.018 290.189 186.018C288.337 186.018 286.837 187.52 286.837 189.373C286.837 191.226 288.337 192.728 290.189 192.728Z" fill="#F97068"/>
<path fill-rule="evenodd" clip-rule="evenodd" d="M231.148 223.455C231.155 224.693 230.795 225.906 230.113 226.938C229.431 227.971 228.458 228.778 227.317 229.257C226.176 229.736 224.919 229.865 223.705 229.628C222.491 229.39 221.374 228.798 220.497 227.925C219.62 227.052 219.021 225.938 218.778 224.725C218.534 223.511 218.655 222.252 219.127 221.108C219.599 219.963 220.399 218.985 221.427 218.296C222.455 217.608 223.664 217.24 224.901 217.24C226.552 217.24 228.135 217.894 229.306 219.058C230.476 220.223 231.138 221.804 231.148 223.455Z" fill="white"/>
<path d="M224.901 226.811C226.753 226.811 228.254 225.308 228.254 223.455C228.254 221.602 226.753 220.1 224.901 220.1C223.05 220.1 221.549 221.602 221.549 223.455C221.549 225.308 223.05 226.811 224.901 226.811Z" fill="#F97068"/>
<path fill-rule="evenodd" clip-rule="evenodd" d="M208.151 259.614C208.154 260.853 207.789 262.065 207.102 263.097C206.416 264.129 205.439 264.933 204.296 265.409C203.153 265.885 201.894 266.011 200.679 265.771C199.464 265.53 198.348 264.935 197.471 264.059C196.595 263.184 195.998 262.068 195.755 260.852C195.513 259.637 195.636 258.377 196.109 257.232C196.583 256.086 197.385 255.107 198.414 254.419C199.444 253.73 200.654 253.362 201.893 253.362C202.714 253.361 203.528 253.521 204.287 253.835C205.046 254.148 205.736 254.608 206.317 255.189C206.899 255.77 207.36 256.459 207.675 257.219C207.989 257.978 208.151 258.792 208.151 259.614Z" fill="white"/>
<path d="M201.893 262.969C203.744 262.969 205.245 261.467 205.245 259.614C205.245 257.761 203.744 256.259 201.893 256.259C200.041 256.259 198.54 257.761 198.54 259.614C198.54 261.467 200.041 262.969 201.893 262.969Z" fill="#F97068"/>
<path d="M254.012 272.576C257.462 272.576 260.258 269.777 260.258 266.324C260.258 262.871 257.462 260.072 254.012 260.072C250.562 260.072 247.765 262.871 247.765 266.324C247.765 269.777 250.562 272.576 254.012 272.576Z" fill="white"/>
<path fill-rule="evenodd" clip-rule="evenodd" d="M257.364 266.324C257.364 266.988 257.168 267.636 256.799 268.188C256.431 268.74 255.907 269.17 255.295 269.424C254.682 269.678 254.008 269.744 253.358 269.615C252.708 269.485 252.11 269.166 251.641 268.697C251.172 268.227 250.853 267.63 250.724 266.979C250.594 266.328 250.661 265.653 250.915 265.04C251.168 264.427 251.598 263.903 252.149 263.534C252.701 263.166 253.349 262.969 254.012 262.969C254.901 262.969 255.754 263.322 256.382 263.952C257.011 264.581 257.364 265.434 257.364 266.324Z" fill="#F97068"/>
<path d="M122.725 146.371C126.175 146.371 128.972 143.572 128.972 140.12C128.972 136.667 126.175 133.868 122.725 133.868C119.275 133.868 116.478 136.667 116.478 140.12C116.478 143.572 119.275 146.371 122.725 146.371Z" fill="white"/>
<path d="M122.725 143.475C124.576 143.475 126.077 141.973 126.077 140.12C126.077 138.267 124.576 136.765 122.725 136.765C120.873 136.765 119.373 138.267 119.373 140.12C119.373 141.973 120.873 143.475 122.725 143.475Z" fill="#F97068"/>
<path fill-rule="evenodd" clip-rule="evenodd" d="M110.943 167.926C110.953 169.164 110.595 170.377 109.915 171.412C109.235 172.446 108.263 173.254 107.124 173.735C105.984 174.216 104.727 174.348 103.512 174.113C102.298 173.878 101.18 173.288 100.301 172.417C99.4224 171.546 98.8217 170.433 98.5754 169.22C98.329 168.006 98.4482 166.747 98.9177 165.602C99.3871 164.457 100.186 163.477 101.213 162.786C102.239 162.095 103.448 161.725 104.685 161.723C106.335 161.72 107.92 162.37 109.092 163.533C110.265 164.695 110.931 166.275 110.943 167.926Z" fill="white"/>
<path d="M104.685 171.282C106.536 171.282 108.037 169.779 108.037 167.926C108.037 166.073 106.536 164.571 104.685 164.571C102.833 164.571 101.332 166.073 101.332 167.926C101.332 169.779 102.833 171.282 104.685 171.282Z" fill="#F97068"/>
<path fill-rule="evenodd" clip-rule="evenodd" d="M159.071 200.344C159.073 201.583 158.708 202.796 158.021 203.828C157.334 204.86 156.357 205.665 155.213 206.14C154.069 206.616 152.809 206.741 151.594 206.5C150.379 206.258 149.263 205.661 148.387 204.785C147.511 203.908 146.914 202.791 146.673 201.575C146.432 200.358 146.557 199.098 147.032 197.953C147.508 196.808 148.312 195.83 149.343 195.142C150.374 194.455 151.585 194.089 152.824 194.092C154.48 194.095 156.067 194.755 157.238 195.926C158.409 197.098 159.068 198.686 159.071 200.344Z" fill="white"/>
<path fill-rule="evenodd" clip-rule="evenodd" d="M156.177 200.344C156.177 201.007 155.98 201.656 155.612 202.208C155.243 202.759 154.72 203.189 154.107 203.443C153.495 203.697 152.821 203.764 152.17 203.634C151.52 203.505 150.923 203.185 150.454 202.716C149.985 202.247 149.666 201.649 149.536 200.998C149.407 200.347 149.473 199.673 149.727 199.06C149.981 198.446 150.411 197.922 150.962 197.554C151.513 197.185 152.161 196.988 152.824 196.988C153.713 196.988 154.566 197.342 155.195 197.971C155.824 198.6 156.177 199.454 156.177 200.344Z" fill="#FFAF20"/>
<path fill-rule="evenodd" clip-rule="evenodd" d="M116.129 256.259C116.129 257.498 115.761 258.71 115.073 259.74C114.385 260.77 113.407 261.573 112.262 262.047C111.118 262.52 109.859 262.644 108.645 262.401C107.43 262.158 106.315 261.561 105.44 260.684C104.565 259.806 103.97 258.689 103.73 257.473C103.49 256.257 103.616 254.998 104.091 253.853C104.567 252.709 105.371 251.731 106.402 251.045C107.432 250.358 108.644 249.993 109.882 249.995C110.703 249.995 111.517 250.157 112.275 250.472C113.034 250.787 113.723 251.248 114.303 251.83C114.884 252.412 115.343 253.103 115.657 253.863C115.97 254.622 116.13 255.437 116.129 256.259Z" fill="white"/>
<path d="M109.882 259.614C111.734 259.614 113.234 258.112 113.234 256.259C113.234 254.406 111.734 252.903 109.882 252.903C108.031 252.903 106.53 254.406 106.53 256.259C106.53 258.112 108.031 259.614 109.882 259.614Z" fill="#FFAF20"/>
<path d="M377.073 176.926L502.914 209.122L448.379 422.622L322.538 390.426C321.98 390.283 321.502 389.924 321.208 389.429C320.915 388.933 320.83 388.341 320.972 387.783L374.435 178.481C374.577 177.923 374.936 177.444 375.431 177.15C375.926 176.856 376.518 176.771 377.075 176.914L377.073 176.926Z" fill="url(#paint6_linear_1_15)"/>
<path d="M385.214 193.054L389.507 183.121L483.098 204.073L502.911 209.142L494.349 242.645L380.318 212.243L385.214 193.054Z" fill="url(#paint7_linear_1_15)"/>
<path d="M502.923 209.13L494.337 242.657L466.685 351.06L448.392 422.652C446.257 430.956 403.17 428.482 369.73 422.218C347.337 418.042 329.26 412.128 330.671 406.528L334.036 393.361L380.318 212.243L385.19 193.102C389.194 203.481 503.936 222.261 502.923 209.13Z" fill="white"/>
<path d="M628.735 250.176L615.795 300.865L596.646 375.765C590.865 384.768 583.905 392.955 575.952 400.108C572.894 402.74 569.694 405.202 566.365 407.482C540.475 424.945 508.108 427.999 476.501 427.806C473.692 427.806 470.834 427.806 468.06 427.709L448.38 422.664L466.685 351.06L494.361 242.657L502.947 209.13L522.76 214.223L563.761 224.711L622.548 239.748C623.642 240.02 624.672 240.506 625.577 241.179C626.481 241.852 627.244 242.698 627.819 243.668C628.395 244.638 628.772 245.713 628.929 246.83C629.086 247.947 629.02 249.085 628.735 250.176Z" fill="url(#paint8_linear_1_15)"/>
<path d="M613.878 251.564L616.857 239.942L522.724 214.211L502.911 209.142L494.349 242.645L608.982 270.753L613.878 251.564Z" fill="url(#paint9_linear_1_15)"/>
<path d="M613.902 251.576L607.173 277.959L575.952 400.096C572.894 402.728 569.694 405.19 566.365 407.47C540.475 424.933 508.108 427.987 476.501 427.794C473.692 427.794 470.834 427.794 468.06 427.697L462.778 427.552C458.557 427.408 454.337 427.311 450.128 427.118C448.669 425.416 448.042 423.92 448.38 422.652L466.685 351.06L494.361 242.657L502.947 209.13C499.498 222.623 553.414 244.95 586.805 250.767C598.852 252.855 612.6 256.428 613.902 251.576Z" fill="white"/>
<path d="M412.065 234.642L385 228.044C384.34 227.883 383.674 228.288 383.513 228.949L376.921 256.036C376.76 256.697 377.165 257.363 377.825 257.523L404.89 264.122C405.55 264.282 406.215 263.877 406.376 263.217L412.969 236.13C413.129 235.469 412.725 234.803 412.065 234.642Z" fill="url(#paint10_linear_1_15)"/>
<path d="M396.442 298.862L369.377 292.264C368.717 292.103 368.052 292.508 367.891 293.169L361.298 320.256C361.137 320.916 361.542 321.582 362.202 321.743L389.267 328.341C389.927 328.502 390.593 328.097 390.753 327.437L397.346 300.35C397.507 299.689 397.102 299.023 396.442 298.862Z" fill="url(#paint11_linear_1_15)"/>
<path d="M466.175 283.564L439.11 276.966C438.45 276.805 437.784 277.21 437.624 277.87L431.031 304.958C430.87 305.618 431.275 306.284 431.935 306.445L459 313.043C459.66 313.204 460.325 312.799 460.486 312.138L467.079 285.051C467.239 284.391 466.835 283.725 466.175 283.564Z" fill="url(#paint12_linear_1_15)"/>
<path opacity="0.5" d="M390.782 340.718L359.51 333.095L357.752 340.318L389.024 347.942L390.782 340.718Z" fill="url(#paint13_linear_1_15)"/>
<path opacity="0.5" d="M456.689 375.275L355.259 350.547L353.892 356.164L455.321 380.891L456.689 375.275Z" fill="url(#paint14_linear_1_15)"/>
<path opacity="0.5" d="M442.362 326.729L393.8 314.889L394.283 312.91L440.879 324.267L456.025 262.028L394.705 247.074L395.187 245.107L458.473 260.531L442.362 326.729Z" fill="url(#paint15_linear_1_15)"/>
<path opacity="0.5" d="M528.493 279.504L500.896 273.113L499.604 278.698L527.202 285.089L528.493 279.504Z" fill="url(#paint16_linear_1_15)"/>
<path opacity="0.5" d="M525.593 292.066L497.996 285.675L496.704 291.26L524.302 297.652L525.593 292.066Z" fill="url(#paint17_linear_1_15)"/>
<path opacity="0.5" d="M581.282 318.202L495.083 298.238L493.791 303.823L579.99 323.787L581.282 318.202Z" fill="url(#paint18_linear_1_15)"/>
<path opacity="0.5" d="M578.381 330.764L492.182 310.8L490.891 316.385L577.09 336.349L578.381 330.764Z" fill="url(#paint19_linear_1_15)"/>
<path d="M574.442 347.801L488.243 327.836L479.312 366.462L565.511 386.426L574.442 347.801Z" fill="url(#paint20_linear_1_15)"/>
<path opacity="0.1" fill-rule="evenodd" clip-rule="evenodd" d="M479.697 373.761C477.96 365.084 475.633 357.951 472.823 354.656C472.043 353.946 471.117 353.414 470.11 353.099C468.904 352.375 467.831 351.687 466.661 351.06C463.358 349.157 459.777 347.785 456.049 346.993C455.376 346.246 454.774 345.438 454.252 344.579C455.053 343.66 455.969 342.849 456.978 342.165C458.57 341.236 459.98 341.284 461.283 339.751C463.514 337.229 464.732 334.996 464.285 331.605C464.044 329.662 461.524 329.468 461.476 327.477C461.476 325.727 463.224 325.293 463.888 323.639C464.418 322.239 464.961 321.322 464.575 319.862C464.403 319.032 464.029 318.258 463.486 317.607C462.943 316.957 462.249 316.45 461.464 316.132C459.052 315.01 457.014 317.774 454.831 316.325C453.42 315.3 454.638 313.26 453.42 312.053C452.993 311.582 452.455 311.224 451.855 311.014C451.255 310.803 450.611 310.745 449.983 310.846C447.704 311.051 447.125 314.153 444.798 313.767C443.918 313.562 444.171 312.258 443.339 311.872C442.836 311.515 442.245 311.304 441.63 311.261C441.015 311.219 440.401 311.346 439.854 311.631C437.141 312.934 438.648 317.4 435.73 318.075C435.006 318.22 434.861 317.062 434.138 317.062C433.474 317.048 432.818 317.217 432.244 317.552C431.67 317.886 431.198 318.372 430.882 318.956C430.207 319.874 430.592 320.791 430.544 321.913C430.276 323.165 430.325 324.464 430.689 325.691C430.93 326.222 431.81 326.27 431.666 326.898C431.521 327.525 430.255 327.284 429.869 327.96C429.609 328.375 429.447 328.845 429.397 329.332C429.347 329.82 429.409 330.312 429.58 330.772C429.728 331.776 430.265 332.682 431.075 333.294C432.016 333.935 433.096 334.345 434.225 334.489C435.355 334.634 436.502 334.51 437.575 334.127C437.987 337.206 439.206 340.121 441.108 342.575C441.475 342.989 441.933 343.313 442.445 343.522C442.957 343.732 443.511 343.82 444.062 343.782C443.712 345.015 443.104 346.158 442.278 347.137C440.67 347.48 439.097 347.965 437.575 348.586C435.891 348.984 434.297 349.692 432.872 350.674C432.1 351.108 431.268 351.446 430.46 351.88C430.435 352.125 430.435 352.372 430.46 352.617C429.833 353.192 429.264 353.826 428.76 354.511C420.432 365.647 412.935 377.382 406.33 389.62L370.153 358.482C369.284 355.767 369.284 351.736 367.15 349.853L358.154 344.12C356.646 342.768 355.055 345.387 356.646 346.739L361.772 351.205C360.856 353.684 360.623 356.364 361.096 358.965C361.445 359.873 361.99 360.692 362.693 361.364C363.396 362.036 364.238 362.544 365.16 362.851L365.269 362.754C366.619 364.348 368.03 366.001 369.429 367.703C369.64 367.972 369.866 368.23 370.104 368.475L372.818 401.797L372.878 402.473L374.904 403.837L376.604 404.947C376.217 405.274 375.877 405.652 375.591 406.07C372.521 410.975 370.535 416.481 369.767 422.218C403.206 428.482 446.293 430.956 448.428 422.652C448.09 423.92 448.717 425.416 450.176 427.118C454.397 427.311 458.618 427.408 462.826 427.552L468.108 427.697C470.87 427.697 473.728 427.794 476.55 427.794C476.791 426.297 476.984 424.789 477.177 423.292C480.794 422.556 483.098 421.301 483.483 419.358C483.972 404.064 482.702 388.764 479.697 373.761ZM432.257 385.07C434.005 396.125 434.922 403.354 425.998 411.211C420.523 409.316 415.531 407.711 410.936 406.384C418.564 399.821 425.691 392.697 432.257 385.07Z" fill="black"/>
<path d="M129.418 163.714L127.85 161.868C129.056 160.842 130.262 159.792 131.468 158.706L133.072 160.54C131.866 161.627 130.636 162.689 129.418 163.714Z" fill="#FFC358"/>
<path d="M68.3869 192.209C64.999 191.929 61.6959 191.003 58.6552 189.482L59.7526 187.321C62.5245 188.677 65.5278 189.496 68.6039 189.735L68.3869 192.209ZM78.3597 191.763L77.9618 189.349C81.0867 188.802 84.1605 187.995 87.1508 186.935L87.9346 189.228C84.8256 190.333 81.6313 191.181 78.3838 191.763H78.3597ZM97.0271 185.523L95.978 183.338C98.7395 182.011 101.585 180.478 104.419 178.788L105.625 180.876C102.755 182.602 99.8489 184.171 97.0271 185.523ZM50.841 183.049C48.7861 180.358 47.2188 177.327 46.2103 174.094L48.5136 173.345C49.4346 176.308 50.8672 179.085 52.7463 181.552L50.841 183.049ZM113.91 175.602L112.547 173.611C115.08 171.873 117.708 169.99 120.337 167.926L121.808 169.858C119.143 171.909 116.49 173.792 113.91 175.602ZM44.3291 164.306C44.1964 162.785 44.1361 161.216 44.1361 159.587C44.1361 157.958 44.1361 156.196 44.3411 154.421L46.7529 154.602C46.6203 156.316 46.56 157.982 46.56 159.587C46.56 161.192 46.56 162.652 46.7409 164.113L44.3291 164.306ZM48.0433 145.116L45.6314 144.658C46.2223 141.604 46.9821 138.382 47.9106 135.111L50.238 135.775C49.3577 138.985 48.61 142.123 48.0433 145.116ZM53.2286 126.615L50.9495 125.794C52.0107 122.837 53.2286 119.76 54.5672 116.694L56.7981 117.648C55.4716 120.689 54.2657 123.706 53.2286 126.615ZM328.416 108.982C325.131 108.612 321.881 107.978 318.697 107.087L319.336 104.746C322.394 105.6 325.515 106.209 328.669 106.568L328.416 108.982ZM60.8017 108.885L58.619 107.811C60.0179 104.999 61.5012 102.055 63.1171 99.1459L65.2395 100.353C63.6718 103.177 62.1765 106.073 60.8017 108.885ZM338.425 108.885L338.027 106.472C341.032 106.079 343.869 104.864 346.227 102.96L347.807 104.794C345.11 106.981 341.865 108.384 338.425 108.849V108.885ZM309.375 103.913C306.408 102.706 303.345 101.318 300.451 99.7856L301.573 97.6373C304.455 99.1338 307.385 100.486 310.291 101.656L309.375 103.913ZM352.787 95.7545L350.376 95.308C350.614 93.998 350.731 92.6688 350.725 91.3373C350.713 89.5734 350.556 87.8134 350.255 86.0753L352.667 85.665C352.991 87.5386 353.161 89.4358 353.173 91.3373C353.193 92.8179 353.072 94.2969 352.812 95.7545H352.787ZM291.925 94.8735C289.152 93.0873 286.451 91.1684 283.918 89.1891L285.414 87.2701C287.886 89.2132 290.527 91.0839 293.24 92.8339L291.925 94.8735ZM70.039 92.0011L68.001 90.6977C69.7254 87.9943 71.6187 85.2908 73.5723 82.6357L75.5138 84.0839C73.6326 86.6908 71.7875 89.3098 70.0993 92.0011H70.039ZM276.514 82.7201C274.149 80.4311 271.934 77.9922 269.882 75.4185L271.787 73.9099C273.771 76.4071 275.918 78.7697 278.214 80.9822L276.514 82.7201ZM347.843 76.915C346.758 73.9099 345.523 70.9614 344.141 68.0806L346.324 67.0306C347.748 69.9873 349.016 73.0168 350.122 76.1064L347.843 76.915ZM81.5795 76.565L79.7344 74.984C81.8327 72.5702 84.0395 70.084 86.3066 67.7427L88.0311 69.4202C85.8243 71.7375 83.6416 74.1392 81.5795 76.565ZM264.383 67.1754C262.767 64.2522 261.501 61.1494 260.608 57.9307L262.948 57.291C263.793 60.3273 264.987 63.2554 266.505 66.0168L264.383 67.1754ZM94.9409 62.6617L93.2888 60.8875C95.6283 58.7031 98.1124 56.5307 100.609 54.4186L102.164 56.2772C99.6801 58.3651 97.2562 60.5134 94.9409 62.6617ZM339.74 59.5358C339.137 58.4496 338.534 57.3514 337.834 56.2289C336.833 54.5393 335.808 52.91 334.747 51.3169L336.773 49.9773C337.846 51.5945 338.895 53.2721 339.908 54.9859C340.584 56.1324 341.235 57.2548 341.85 58.3531L339.74 59.5358ZM109.737 50.2669L108.266 48.3359C110.823 46.3928 113.488 44.4618 116.177 42.6032L117.54 44.6549C114.862 46.4411 112.234 48.348 109.737 50.2669ZM470.11 49.398C467.924 47.069 465.609 44.865 463.176 42.7963L464.744 40.9618C467.251 43.0805 469.634 45.3411 471.883 47.7324L470.11 49.398ZM261.85 48.0945L259.438 47.9859C259.584 44.609 260.293 41.2803 261.537 38.1377L263.78 39.0308C262.634 41.9225 261.981 44.9864 261.85 48.0945ZM329.031 43.5808C327.017 41.0946 324.883 38.6808 322.652 36.4239L324.388 34.7222C326.656 37.0394 328.862 39.5497 330.912 42.0601L329.031 43.5808ZM125.595 39.2842L124.305 37.2325C127.042 35.5187 129.864 33.8291 132.746 32.2239L133.952 34.3239C131.094 35.917 128.308 37.5946 125.595 39.2842ZM455.579 36.8704C453.071 35.0722 450.369 33.2498 447.548 31.5601L448.814 29.4964C451.672 31.2463 454.421 33.117 456.99 34.8912L455.579 36.8704ZM268.434 30.9446L266.505 29.4602C266.915 28.9291 267.349 28.3981 267.795 27.8671C269.495 25.8673 271.311 23.9692 273.234 22.1826L274.946 23.9688C273.088 25.6828 271.336 27.5086 269.701 29.436C269.218 29.9429 268.82 30.4377 268.434 30.9446ZM315.622 29.9308C313.172 27.8719 310.621 25.9384 307.976 24.1378L309.339 22.1223C312.052 23.9809 314.693 25.9722 317.165 28.0481L315.622 29.9308ZM142.369 29.7257L141.26 27.5653C144.138 26.0768 147.056 24.6447 150.015 23.2688L151.028 25.4654C148.109 26.8332 145.223 28.2533 142.369 29.7257ZM439.179 26.8291C436.429 25.3567 433.523 23.9085 430.556 22.5205L431.569 20.324C434.584 21.724 437.539 23.1964 440.324 24.6809L439.179 26.8291ZM159.867 21.5671L158.938 19.3102C161.937 18.0551 164.964 16.8482 168.019 15.6896L168.863 17.9585C165.848 19.1332 162.849 20.3361 159.867 21.5671ZM299.812 19.1533C297.038 17.6326 294.144 16.2085 291.202 14.9292L292.167 12.7085C295.181 14.012 298.136 15.4723 300.982 17.0292L299.812 19.1533ZM421.705 18.6706C418.738 17.4637 415.675 16.2568 412.697 15.2189L413.505 12.9378C416.556 14.024 419.619 15.1947 422.634 16.4258L421.705 18.6706ZM282.339 18.1033L280.976 16.0516C283.682 14.2028 286.501 12.5259 289.417 11.031L290.515 13.2034C287.683 14.6526 284.952 16.2895 282.339 18.1033ZM177.992 14.8689L177.268 12.5637C180.367 11.562 183.515 10.6206 186.626 9.76373L187.277 12.093C184.166 12.9499 181.055 13.8792 177.992 14.8689ZM403.496 12.1413C400.421 11.1879 397.297 10.2948 394.21 9.47408L394.825 7.13271C397.949 7.9534 401.108 8.85856 404.219 9.82407L403.496 12.1413ZM282.242 11.4534C279.263 10.4517 276.213 9.54649 273.017 8.77408L273.608 6.3603C276.803 7.16892 279.975 8.08615 283.014 9.11201L282.242 11.4534ZM196.623 9.72752L196.08 7.31375C199.264 6.58961 202.483 5.92582 205.643 5.34652L206.077 7.76029C202.954 8.35167 199.77 9.00339 196.623 9.72752ZM299.318 9.37753L298.474 7.10857C301.545 5.96473 304.672 4.97784 307.843 4.1517L308.458 6.49306C305.299 7.32581 302.224 8.30339 299.318 9.37753ZM384.865 7.24133C381.693 6.54134 378.509 5.92582 375.386 5.38272L375.796 2.96895C378.956 3.51205 382.175 4.17584 385.371 4.83962L384.865 7.24133ZM263.599 6.80685C260.512 6.26375 257.304 5.84134 254.06 5.51548L254.301 3.1017C257.593 3.42756 260.861 3.87411 264.009 4.40514L263.599 6.80685ZM215.604 6.29996L215.29 3.88618C218.534 3.46377 221.802 3.11377 225.01 2.8724L225.203 5.28617C222.043 5.55169 218.811 5.88962 215.604 6.29996ZM244.461 4.82756C241.277 4.70687 238.058 4.6948 234.814 4.76721V2.35343C238.102 2.28102 241.362 2.30114 244.594 2.41378L244.461 4.82756ZM317.84 4.41721L317.418 2.00344C320.542 1.46034 323.81 1.01379 327.066 0.687927L327.307 3.1017C324.111 3.47584 320.903 3.92239 317.84 4.45342V4.41721ZM365.835 3.89825C362.604 3.49998 359.372 3.16205 356.188 2.92067L356.381 0.506894C359.553 0.748272 362.821 1.0862 366.089 1.49654L365.835 3.89825ZM336.966 2.5224L336.882 0.108621C338.763 0.108621 340.801 0.0241386 342.549 0.0120697C343.912 0.0120697 345.287 0.0120697 346.661 0.0120697L346.601 2.42585C345.178 2.42585 343.743 2.42585 342.344 2.42585C340.548 2.41378 338.751 2.41378 336.966 2.5224Z" fill="#0081FF"/>
<path d="M478.744 61.1893C478.021 59.8496 477.201 58.4858 476.332 57.1341L478.346 55.7945C479.287 57.2065 480.143 58.6427 480.903 60.0427L478.744 61.1893Z" fill="#0081FF"/>
<path opacity="0.5" d="M484.484 65.6789L505.708 49.3979L519.528 115.101L484.484 65.6789Z" fill="url(#paint21_linear_1_15)"/>
<path opacity="0.5" d="M519.528 115.101L456.99 71.9185L484.484 65.6789L519.528 115.101Z" fill="url(#paint22_linear_1_15)"/>
<path opacity="0.5" d="M477.719 67.2116L519.528 115.101L490.333 61.1893L477.719 67.2116Z" fill="url(#paint23_linear_1_15)"/>
<path fill-rule="evenodd" clip-rule="evenodd" d="M431.847 347.584C431.461 350.348 429.821 354.041 427.252 358.253C419.197 371.408 402.579 389.403 390.991 398.804C384.213 402.932 365.835 377.37 350.665 359.037C349.218 357.287 347.807 355.586 346.408 353.992L351.232 349.672L387.53 380.954C394.151 368.715 401.664 356.981 410.008 345.846C418.184 335.262 431.943 339.244 431.847 347.584Z" fill="#FFB26C"/>
<path opacity="0.1" fill-rule="evenodd" clip-rule="evenodd" d="M427.252 358.253C419.197 371.408 402.579 389.403 390.991 398.804C384.213 402.932 365.835 377.37 350.665 359.037C351.305 359.658 351.905 360.32 352.462 361.017C355.609 364.637 360.602 365.965 364.34 369.03C369.96 373.629 372.48 382.125 379.366 384.406C382.368 385.372 385.66 384.937 388.76 384.503C392.787 383.911 396.863 383.296 400.445 381.389C407.186 377.708 410.623 370.092 415.953 364.492C418.087 362.26 422.115 358.132 425.359 357.842C426.018 357.758 426.687 357.902 427.252 358.253Z" fill="black"/>
<path fill-rule="evenodd" clip-rule="evenodd" d="M387.409 459.825C383.806 461.988 379.727 463.231 375.531 463.445C371.992 463.777 368.423 463.429 365.015 462.419C362.429 461.654 360.011 460.405 357.888 458.738C355.448 456.789 353.478 454.314 352.124 451.497C352.124 451.4 352.028 451.352 351.98 451.256L356.731 449.361L362.399 447.176L367.222 445.245L369.26 444.461L370.563 445.583L373.626 448.154L386.89 459.402L387.409 459.825Z" fill="url(#paint24_linear_1_15)"/>
<path fill-rule="evenodd" clip-rule="evenodd" d="M375.869 493.979L370.297 495.186H370.213C369.897 495.278 369.575 495.343 369.248 495.379L365.847 496.164C365.751 495.766 365.655 495.428 365.558 495.042C362.273 483.085 359.732 470.937 357.949 458.666C357.515 455.902 357.177 453.138 356.936 450.471L356.791 449.264C356.791 448.878 356.791 448.54 356.695 448.202L362.459 447.08L367.065 446.163L370.683 445.487L372.818 445.04C373.155 446.018 373.445 447.032 373.746 448.057C374.363 450.482 374.815 452.946 375.097 455.431C375.386 458.05 375.579 460.669 375.627 463.337C375.869 472.738 375 482.442 375.772 491.614C375.724 492.471 375.772 493.243 375.869 493.979Z" fill="#FFB26C"/>
<path fill-rule="evenodd" clip-rule="evenodd" d="M425.986 434.999C423.983 437.438 421.352 439.283 418.377 440.333C406.8 443.238 392.438 436.753 375.29 420.878L387.095 459.39H386.903C382.151 459.631 378.666 457.64 374.976 455.516C372.166 453.649 369.121 452.163 365.92 451.099C362.964 450.315 359.883 450.118 356.851 450.519C355.246 450.725 353.658 451.048 352.1 451.485C352.1 451.485 352.004 451.485 351.955 451.485C348.137 426.116 349.745 408.073 356.779 397.356C362.519 389.117 387.317 393.848 431.171 411.549C431.798 422.182 430.11 430.002 425.986 434.999Z" fill="url(#paint25_linear_1_15)"/>
<path fill-rule="evenodd" clip-rule="evenodd" d="M380.716 501.197C380.813 505.71 366.474 516.379 356.827 519.3C355.063 519.949 353.169 520.165 351.304 519.928C347.276 515.1 364.629 505.083 365.305 495.09H365.498C366.695 495.436 367.947 495.551 369.188 495.428C369.514 495.391 369.837 495.327 370.153 495.235H370.297C372.386 494.584 374.249 493.358 375.676 491.698L375.868 491.505C377.293 492.706 378.457 494.184 379.291 495.851C380.124 497.517 380.609 499.336 380.716 501.197Z" fill="url(#paint26_linear_1_15)"/>
<path opacity="0.1" fill-rule="evenodd" clip-rule="evenodd" d="M425.986 434.999C423.983 437.438 421.352 439.283 418.377 440.333C406.8 443.238 392.438 436.753 375.29 420.878L387.095 459.39H386.903L387.385 459.825C383.782 461.988 379.703 463.231 375.507 463.445C375.748 472.847 374.88 482.55 375.651 491.723L375.844 491.53C377.26 492.728 378.417 494.202 379.247 495.861C380.076 497.521 380.559 499.332 380.668 501.185C380.765 505.698 366.426 516.367 356.779 519.288C358.63 516.892 360.602 514.592 362.688 512.397C366.772 507.506 369.382 501.554 370.213 495.235C371.081 488.585 370.555 481.828 368.669 475.393C367.403 471.085 365.655 466.861 365.052 462.395C365.052 462.057 365.052 461.671 364.955 461.333C364.808 457.89 365.154 454.444 365.98 451.099C366.318 449.494 366.704 447.852 367.041 446.271C367.138 445.933 367.186 445.595 367.282 445.257C368.295 440.695 368.983 436.182 367.91 431.668C367.186 428.614 365.679 425.802 364.762 422.797C363.846 419.792 363.556 416.292 365.244 413.673C366.132 412.44 367.306 411.443 368.666 410.768C370.025 410.093 371.529 409.76 373.047 409.799C376.068 409.885 379.04 410.592 381.777 411.875C388.842 414.831 395.411 418.857 401.253 423.811C405.425 427.359 409.357 431.475 414.397 433.466C418.328 435.047 422.067 434.842 425.986 434.999Z" fill="black"/>
<path fill-rule="evenodd" clip-rule="evenodd" d="M421.621 469.576L420.945 474.187L420.559 476.757L419.643 482.864L418.907 487.909C418.811 487.909 418.763 487.909 418.666 487.909C415.643 487.222 412.811 485.866 410.382 483.938C407.351 481.493 405.01 478.298 403.592 474.669C402.692 472.423 402.06 470.077 401.711 467.681C401.014 463.58 401.329 459.371 402.628 455.419L403.206 455.854L416.93 466.137L420.318 468.611L421.621 469.576Z" fill="url(#paint27_linear_1_15)"/>
<path fill-rule="evenodd" clip-rule="evenodd" d="M420.752 482.755L419.643 482.9C419.288 482.956 418.929 482.988 418.57 482.997C415.905 483.395 413.143 483.685 410.382 483.926C398 484.935 385.567 485.177 373.155 484.65C372.818 484.65 372.432 484.65 372.046 484.65V480.281V479.074V474.247L374.325 473.957C383.381 472.593 392.643 469.588 401.856 467.693C404.466 467.153 407.102 466.751 409.754 466.487C412.184 466.207 414.629 466.094 417.074 466.149C418.184 466.149 419.245 466.245 420.366 466.342L420.463 468.623L420.608 474.247L420.704 476.818L420.752 482.755Z" fill="#FFB26C"/>
<path fill-rule="evenodd" clip-rule="evenodd" d="M470.231 471.085C461.415 480.39 444.159 486.026 418.666 487.981V487.836C418.757 486.203 418.725 484.565 418.57 482.936C418.28 479.849 417.338 476.859 415.808 474.162C414.099 471.309 412.014 468.699 409.61 466.402C406.752 463.349 404.075 460.368 403.206 455.781C403.206 455.637 403.206 455.492 403.11 455.347L443.291 458.256C423.996 445.149 414.349 432.645 414.602 420.613C415.374 414.156 419.197 409.208 426.034 405.816C430.378 403.777 434.998 402.386 439.745 401.689C466.894 440.518 477.056 463.65 470.231 471.085Z" fill="url(#paint28_linear_1_15)"/>
<path fill-rule="evenodd" clip-rule="evenodd" d="M372.094 479.038C372.036 479.438 372.004 479.841 371.998 480.245C372.019 481.796 372.434 483.316 373.203 484.662C373.203 484.662 373.203 484.759 373.3 484.807C363.761 487.716 357.888 506.929 352.317 504.021C350.87 500.714 351.883 494.124 353.969 487.667C356.586 479.569 360.843 471.761 363.906 471.133C365.734 470.836 367.603 470.91 369.401 471.352C371.199 471.794 372.891 472.594 374.373 473.704C374.373 473.8 374.277 473.849 374.228 473.945C373.1 475.436 372.366 477.188 372.094 479.038Z" fill="url(#paint29_linear_1_15)"/>
<path opacity="0.1" fill-rule="evenodd" clip-rule="evenodd" d="M470.231 471.085C461.415 480.39 444.159 486.026 418.666 487.981V487.836C415.642 487.15 412.811 485.793 410.382 483.866C398 484.875 385.567 485.117 373.155 484.59C373.155 484.59 373.155 484.686 373.252 484.735C363.713 487.643 357.84 506.857 352.269 503.948C350.822 500.642 351.835 494.052 353.921 487.595C358.081 483.974 362.543 480.462 367.922 479.4C369.246 479.126 370.597 478.997 371.949 479.014C371.958 479.004 371.97 478.996 371.982 478.99C371.994 478.984 372.008 478.981 372.022 478.981C372.035 478.981 372.049 478.984 372.061 478.99C372.074 478.996 372.085 479.004 372.094 479.014C375.145 478.918 378.196 479.207 381.247 479.014C385.66 478.676 389.833 477.119 394.15 476.105C397.259 475.394 400.414 474.906 403.592 474.645C407.62 474.307 411.732 474.211 415.808 474.211H420.945C431.654 474.211 442.217 474.018 451.865 469.649C453.433 469.055 454.844 468.11 455.989 466.885C458.606 463.783 457.93 459.125 456.761 455.238C453.943 445.938 449.206 437.332 442.857 429.978C437.128 423.377 429.772 417.366 426.709 408.918C426.331 407.94 426.103 406.911 426.034 405.865C430.378 403.825 434.998 402.435 439.745 401.737C466.894 440.534 477.056 463.65 470.231 471.085Z" fill="black"/>
<path fill-rule="evenodd" clip-rule="evenodd" d="M456.568 426.937C447.528 428.822 438.124 427.77 429.724 423.932C421.186 420.311 412.468 414.132 403.689 405.358C424.877 390.32 408.295 379.458 411.732 343.215C425.455 334.92 439.4 335.781 453.565 345.798C453.824 346.44 454.034 347.102 454.192 347.777C461.415 368.632 462.187 395.075 456.568 426.937Z" fill="url(#paint30_linear_1_15)"/>
<path opacity="0.1" fill-rule="evenodd" clip-rule="evenodd" d="M456.568 426.937C447.528 428.822 438.124 427.77 429.724 423.932C429.737 423.71 429.803 423.494 429.917 423.304C431.895 418.742 437.478 417.197 441.542 414.373C448.331 409.678 451.382 400.989 451.479 392.746C451.575 384.503 449.2 376.501 447.21 368.487C446.689 366.556 446.381 364.572 446.293 362.573C446.293 357.336 449.441 352.725 452.89 348.996C453.287 348.556 453.723 348.152 454.192 347.789C461.415 368.632 462.187 395.075 456.568 426.937Z" fill="black"/>
<path fill-rule="evenodd" clip-rule="evenodd" d="M388.217 416.075L409.236 412.84L371.515 388.509L354.078 393.156L388.217 416.075Z" fill="url(#paint31_linear_1_15)"/>
<path fill-rule="evenodd" clip-rule="evenodd" d="M354.138 393.832L388.217 416.377L382.489 378.637L351.316 359.653L354.138 393.832Z" fill="url(#paint32_linear_1_15)"/>
<path fill-rule="evenodd" clip-rule="evenodd" d="M367.91 380.665C367.949 380.927 367.913 381.195 367.807 381.437C367.7 381.68 367.527 381.887 367.307 382.035C367.087 382.183 366.83 382.266 366.565 382.273C366.3 382.28 366.039 382.212 365.811 382.077C365.204 381.768 364.689 381.303 364.319 380.731C363.948 380.159 363.735 379.499 363.701 378.818C363.662 378.555 363.699 378.287 363.808 378.044C363.916 377.801 364.091 377.595 364.312 377.448C364.533 377.301 364.792 377.22 365.057 377.215C365.323 377.21 365.584 377.28 365.811 377.418C366.418 377.724 366.932 378.186 367.3 378.757C367.669 379.327 367.879 379.986 367.91 380.665Z" fill="#F2F2F2"/>
<path fill-rule="evenodd" clip-rule="evenodd" d="M464.708 410.692C463.068 419.225 425.684 414.228 401.566 413.842V407.397C401.566 407.397 401.566 407.397 401.663 407.397L449.055 401.363C444.378 388.273 440.686 374.851 438.009 361.21C435.597 347.934 447.849 340.343 454.047 346.027C456.857 349.322 459.185 356.455 460.933 365.132C463.931 380.124 465.198 395.411 464.708 410.692Z" fill="#FFB26C"/>
<path fill-rule="evenodd" clip-rule="evenodd" d="M401.952 407.397L401.808 410.342L401.566 413.842V413.963C398.455 413.528 397.539 411.247 394.97 411.102L392.016 411.634L389.447 412.128C388.518 411.971 387.035 411.247 388.615 410.378C390.735 409.12 392.978 408.081 395.308 407.277C397.394 407.159 399.487 407.208 401.566 407.421C401.566 407.421 401.566 407.421 401.663 407.421L401.952 407.397Z" fill="#FFB26C"/>
<path fill-rule="evenodd" clip-rule="evenodd" d="M423.502 338.436C425.6 343.263 430.243 343.263 437.442 338.496C434.548 335.334 432.872 330.82 432.462 324.955L424.382 325.763C426.541 331.219 426.263 335.515 423.502 338.436Z" fill="#FFA45A"/>
<path fill-rule="evenodd" clip-rule="evenodd" d="M422.356 333.91C424.856 336.67 429.503 334.719 436.296 328.056L432.679 310.931L418.799 315.384C417.713 323.338 418.859 329.481 422.356 333.91Z" fill="#FFB26C"/>
<path fill-rule="evenodd" clip-rule="evenodd" d="M422.429 322.384C420.74 322.251 420.885 324.882 419.269 325.425C418.141 325.89 416.914 326.065 415.701 325.934C414.488 325.803 413.327 325.371 412.323 324.677C411.922 324.395 411.585 324.033 411.331 323.613C411.078 323.193 410.915 322.725 410.852 322.239C410.674 321.778 410.606 321.282 410.652 320.79C410.698 320.298 410.857 319.823 411.117 319.403C411.515 318.727 412.793 319.065 412.938 318.329C413.071 317.786 412.19 317.725 411.925 317.122C411.382 315.77 411.72 314.829 411.792 313.344C411.792 312.198 411.455 311.329 412.13 310.376C412.453 309.803 412.923 309.327 413.491 308.996C414.059 308.665 414.705 308.491 415.362 308.493C416.098 308.493 416.23 309.639 416.978 309.507C419.872 308.831 418.389 304.377 421.078 303.038C421.633 302.763 422.251 302.642 422.869 302.689C423.486 302.735 424.08 302.948 424.587 303.303C425.395 303.714 425.19 304.993 426.07 305.186C428.362 305.596 428.965 302.495 431.256 302.289C431.882 302.193 432.522 302.252 433.119 302.463C433.717 302.674 434.253 303.028 434.681 303.496C435.886 304.703 434.681 306.731 436.104 307.745C438.25 309.229 440.348 306.465 442.7 307.539C443.487 307.866 444.181 308.381 444.722 309.04C445.262 309.699 445.632 310.481 445.799 311.317C446.197 312.729 445.666 313.67 445.124 315.082C444.521 316.7 442.772 317.17 442.772 318.932C442.832 320.888 445.329 321.081 445.594 323.036C446.004 326.415 444.786 328.636 442.567 331.194C441.289 332.679 439.866 332.606 438.25 333.608C436.031 334.887 435.223 337.374 432.667 337.229C431.261 337.115 429.935 336.526 428.908 335.559C427.88 334.592 427.211 333.304 427.011 331.906C426.673 330.289 428.217 329.613 428.892 328.068C429.435 326.789 430.641 325.848 429.977 324.701C429.817 324.479 429.613 324.292 429.378 324.15C429.144 324.009 428.883 323.916 428.612 323.878C428.34 323.84 428.064 323.856 427.799 323.927C427.535 323.998 427.287 324.122 427.071 324.291C425.926 325.039 427.542 327.996 426.336 327.658C425.13 327.32 424.852 322.589 422.429 322.384Z" fill="black"/>
<path fill-rule="evenodd" clip-rule="evenodd" d="M351.521 350.155C350.508 347.463 350.641 343.155 348.422 341.199L339.462 335.515C337.979 334.163 336.363 336.794 337.979 338.146L343.032 342.587C342.09 345.057 341.856 347.74 342.356 350.336C342.688 351.252 343.225 352.08 343.925 352.758C344.625 353.436 345.47 353.944 346.396 354.246L351.521 350.155Z" fill="#FFB26C"/>
<path opacity="0.1" fill-rule="evenodd" clip-rule="evenodd" d="M464.708 410.692C463.067 419.225 425.684 414.228 401.566 413.842V413.963C398.455 413.528 397.539 411.247 394.97 411.102L392.016 411.633C392.419 411.366 392.858 411.155 393.318 411.006C395.143 410.484 397.042 410.271 398.937 410.378H401.759C413.529 410.475 425.262 410.523 437.032 410.571C442.664 410.571 448.669 410.475 453.131 407.083C456.749 404.308 458.654 399.758 459.329 395.196C460.004 390.634 459.619 386.072 459.619 381.461C459.522 376.429 459.522 370.792 460.74 365.844C460.74 365.603 460.885 365.361 460.933 365.12C463.932 380.116 465.199 395.407 464.708 410.692Z" fill="black"/>
<path fill-rule="evenodd" clip-rule="evenodd" d="M84.5701 247.871C84.0395 251.166 83.3642 254.171 82.6768 256.597C74.2484 256.634 65.8237 256.231 57.4373 255.39L53.8195 244.854L44.5099 217.699C52.3724 217.216 60.9947 217.892 84.1601 224.53C86.4151 231.723 85.8363 240.448 84.5701 247.871Z" fill="#7E661C"/>
<path opacity="0.1" fill-rule="evenodd" clip-rule="evenodd" d="M128.139 180.442C126.403 222.357 123.195 246.99 116.37 251.648C112.342 254.062 100.175 256.403 82.6769 256.548C74.2484 256.586 65.8238 256.183 57.4373 255.341L53.8195 244.805C55.0947 244.35 56.4473 244.154 57.799 244.226C60.7053 244.371 63.4668 245.433 66.2404 246.266C72.2381 247.675 78.4069 248.215 84.5581 247.871L88.827 247.726C94.0606 247.533 99.5354 247.231 103.949 244.419C106.919 242.306 109.322 239.491 110.943 236.224C120 219.497 117.286 198.002 127.223 181.757C127.609 181.226 127.898 180.78 128.139 180.442Z" fill="black"/>
<path fill-rule="evenodd" clip-rule="evenodd" d="M207.078 264.948C206.99 263.933 206.583 262.972 205.916 262.203C205.249 261.433 204.355 260.894 203.364 260.664C204.075 253.278 212.842 245.795 220.705 239.085C228.965 232.048 236.092 225.978 234.946 219.955C234.247 216.335 230.485 213.33 223.418 210.916L222.526 213.535C228.483 215.574 231.739 217.904 232.233 220.474C233.077 224.904 226.204 230.769 218.908 236.985C210.467 244.154 201.121 252.179 200.59 260.821C199.56 261.159 198.673 261.835 198.074 262.739C197.474 263.643 197.197 264.724 197.286 265.805L197.949 273.457C198.064 274.758 198.691 275.96 199.692 276.799C200.693 277.637 201.985 278.044 203.285 277.928C204.586 277.813 205.787 277.186 206.625 276.184C207.462 275.183 207.868 273.889 207.753 272.588L207.078 264.948Z" fill="#0081FF"/>
<path fill-rule="evenodd" clip-rule="evenodd" d="M65.6253 514.304L47.4041 514.4H38.6251C37.2263 511.926 39.011 510.043 40.4219 508.148C41.1861 507.277 41.6731 506.197 41.8208 505.047L42.7011 496.261L43.1835 491.023C44.6426 489.369 46.0415 488.609 47.4041 488.742C48.0625 488.837 48.6927 489.073 49.2523 489.433C49.8119 489.794 50.2878 490.27 50.648 490.83L50.7927 495.488L51.0339 505.336C51.0436 505.777 51.1085 506.215 51.2268 506.64C52.686 511.974 61.5011 509.597 65.6253 514.304Z" fill="#FFC78F"/>
<path fill-rule="evenodd" clip-rule="evenodd" d="M71.8237 517.514C64.3825 518.788 56.8133 519.145 49.2853 518.576C45.4152 518.326 41.5741 517.741 37.8051 516.826C37.541 515.267 37.5894 513.672 37.9476 512.132C38.3058 510.593 38.9665 509.14 39.8913 507.859C40.0569 507.988 40.2346 508.101 40.4219 508.197C41.25 508.864 42.2055 509.355 43.2299 509.639C44.2543 509.923 45.326 509.995 46.3791 509.85C48.3368 509.388 50.0699 508.252 51.2751 506.64L51.8539 505.916C55.9781 514.448 73.5602 507.762 71.8237 517.514Z" fill="url(#paint33_linear_1_15)"/>
<path fill-rule="evenodd" clip-rule="evenodd" d="M66.4936 361.56C65.77 370.684 64.745 379.796 63.4909 388.92L52.9272 494.028C52.2902 494.593 51.5901 495.083 50.8409 495.488C49.5147 496.234 48.0409 496.679 46.5238 496.792C45.2295 496.924 43.922 496.759 42.7011 496.309C41.2194 495.8 39.8858 494.934 38.8181 493.786C39.5537 447.611 29.3758 423.063 35.2848 388.147C32.668 360.98 20.2592 332.075 27.4826 306.55L67.6151 298.886C68.5747 319.78 68.2001 340.714 66.4936 361.56Z" fill="url(#paint34_linear_1_15)"/>
<path opacity="0.1" fill-rule="evenodd" clip-rule="evenodd" d="M71.8237 517.514C64.3825 518.788 56.8133 519.145 49.2853 518.576C49.0455 518.22 48.8357 517.844 48.6583 517.453C48.193 516.462 47.7903 515.442 47.4524 514.4C46.9629 512.921 46.6196 511.397 46.4273 509.85C45.9693 505.506 46.0178 501.124 46.572 496.792C46.572 496.55 46.572 496.357 46.572 496.116C46.8132 493.702 47.1026 491.216 47.4041 488.79C49.2853 472.4 51.8057 456.047 52.493 439.561C53.0719 424.909 52.1433 410.161 53.8919 395.57C55.2063 384.937 65.1068 366.604 59.0049 347.125C59.7285 346.015 65.7218 362.199 66.4936 361.608C65.7701 370.732 64.745 379.844 63.4909 388.968L52.9272 494.076C52.2902 494.642 51.5902 495.132 50.841 495.536L51.0821 505.385C51.0919 505.825 51.1567 506.263 51.2751 506.688L51.8539 505.964C55.9781 514.448 73.5602 507.762 71.8237 517.514Z" fill="black"/>
<path fill-rule="evenodd" clip-rule="evenodd" d="M24.3352 511.298L8.57398 501.16L1.84503 496.84C2.08621 493.979 4.60655 493.448 6.83748 492.628C7.92438 492.305 8.89822 491.681 9.64724 490.829L14.7844 484.385L18.3177 479.871C19.6866 479.408 21.1694 479.408 22.5384 479.871C23.7443 480.498 24.4316 481.814 24.5763 483.793L21.2722 489.224L17.0636 496.031C16.8557 496.392 16.6744 496.767 16.5209 497.154C14.8326 502.379 23.4066 505.191 24.3352 511.298Z" fill="#FFC78F"/>
<path fill-rule="evenodd" clip-rule="evenodd" d="M27.8685 517.26C20.8073 514.193 14.1492 510.269 8.04339 505.578C5.16828 503.389 2.47807 500.967 0 498.336C0.592976 496.875 1.48046 495.552 2.60707 494.449C3.73368 493.347 5.07525 492.488 6.54806 491.928L6.83748 492.664C7.40382 494.346 8.51051 495.793 9.98489 496.779C10.9696 497.344 12.0695 497.677 13.2016 497.755C14.3337 497.832 15.4687 497.651 16.5209 497.226C16.8534 497.149 17.1798 497.048 17.4977 496.924C16.328 506.157 34.5612 510.14 27.8685 517.26Z" fill="url(#paint35_linear_1_15)"/>
<path fill-rule="evenodd" clip-rule="evenodd" d="M91.4558 407.011L25.324 489.369C23.9651 489.558 22.583 489.493 21.248 489.176C19.5684 488.849 18.0118 488.064 16.75 486.907C15.9189 486.214 15.2413 485.355 14.7603 484.385C14.2254 483.469 13.8617 482.462 13.687 481.416C39.3728 443.145 44.2688 417.004 68.218 390.899C72.4508 370.515 40.3255 334.006 60.2952 316.651L79.9153 313.936L94.1691 311.993C105.119 357.734 104.214 389.407 91.4558 407.011Z" fill="url(#paint36_linear_1_15)"/>
<path opacity="0.1" fill-rule="evenodd" clip-rule="evenodd" d="M17.0636 496.031C16.8558 496.392 16.6744 496.767 16.5209 497.154C16.8534 497.077 17.1798 496.976 17.4977 496.852C16.2918 506.121 34.5612 510.128 27.8685 517.224C20.8074 514.156 14.1492 510.233 8.0434 505.541C8.05038 504.054 8.22841 502.571 8.57399 501.124C8.86812 499.638 9.3251 498.189 9.93667 496.804C9.93667 496.804 9.93667 496.804 9.93667 496.707C11.5381 493.539 13.5402 490.59 15.8938 487.933C16.1833 487.595 16.4727 487.209 16.7259 486.871C18.6554 484.457 20.5969 482.164 22.4901 479.786C40.426 457.668 58.3256 435.542 76.1891 413.408C79.9153 408.797 83.7501 404.042 85.2575 398.321C86.0468 394.623 86.3548 390.838 86.174 387.061L85.7399 340.789C85.7399 331.134 82.6286 324.786 80.2168 315.951C79.9851 315.301 79.8668 314.615 79.8671 313.924L94.1209 311.981C105.071 357.722 104.166 389.395 91.4076 406.999L25.324 489.369C23.9652 489.558 22.583 489.493 21.2481 489.176L17.0636 496.031Z" fill="black"/>
<path fill-rule="evenodd" clip-rule="evenodd" d="M123.268 158.32C125.076 154.325 137.389 154.928 137.509 157.945C137.63 160.963 122.882 166.671 122.749 162.508C122.616 158.344 123.268 158.32 123.268 158.32Z" fill="#FFC78F"/>
<path opacity="0.1" fill-rule="evenodd" clip-rule="evenodd" d="M188.386 246.314C160.711 279.25 142.683 297.341 134.302 296.858C129.647 296.279 118.625 290.691 104.685 280.071C101.441 277.596 98.0521 274.833 94.555 271.828C95.1245 288.556 96.6464 305.238 99.1133 321.793C92.4758 326.033 85.1194 329.023 77.407 330.615C77.0986 327.976 77.2331 325.304 77.805 322.71C79.0109 317.472 81.3383 312.669 83.1833 307.672C87.1521 296.604 88.3164 284.724 86.5719 273.095C85.6193 266.541 83.6536 260.036 84.4134 253.447C85.1448 254.7 85.9501 255.909 86.8252 257.067C89.0311 260.15 91.5664 262.983 94.3862 265.515C98.9109 269.591 103.75 273.304 108.857 276.619C110.497 277.826 112.149 278.852 113.801 279.962C117.769 282.581 121.941 285.296 126.692 285.888C134.591 286.902 141.959 281.905 148.061 276.764C159.107 267.447 169.14 256.922 181.018 248.631C184.166 246.507 186.493 245.735 188.386 246.314Z" fill="black"/>
<path opacity="0.1" fill-rule="evenodd" clip-rule="evenodd" d="M272.8 229.502C272.891 228.48 272.599 227.46 271.98 226.642L229.87 173.864L182.839 175.071C182.839 173.442 179.776 172.657 176.303 172.657C173.035 172.657 169.562 173.478 168.742 175.313L162.194 175.518C161.402 175.549 160.633 175.797 159.971 176.236C159.31 176.675 158.782 177.287 158.445 178.005C158.108 178.724 157.974 179.522 158.059 180.311C158.144 181.1 158.444 181.851 158.926 182.482L164.449 189.433L148.097 244.262C145.668 241.498 142.924 239.027 139.921 236.9C139.921 236.846 139.9 236.794 139.861 236.755C139.823 236.717 139.771 236.695 139.716 236.695C134.205 234.474 128.435 232.961 122.544 232.193C120.625 230.074 119.368 227.439 118.926 224.614C119.654 224.713 120.395 224.657 121.1 224.449C121.804 224.241 122.457 223.886 123.014 223.407C124.437 221.766 124.847 217.88 124.437 211.749C122.844 214.599 121.411 217.537 120.144 220.547C113.374 237.412 110.577 255.612 111.968 273.734C112.64 282.65 114.146 291.483 116.466 300.117C119.162 311.045 123.579 321.474 129.55 331.013C133.452 336.991 138.127 342.425 143.454 347.174C143.249 344.917 142.634 342.672 142.249 340.222C143.095 339.818 143.902 339.337 144.66 338.786C143.454 331.834 142.61 324.303 141.79 316.277C141.175 309.941 140.765 303.4 140.367 296.436C140.162 294.022 140.162 291.524 139.957 288.869C141.585 290.305 143.225 291.729 144.865 292.96C146.698 294.396 148.338 295.82 150.171 297.257C155.258 301.231 160.658 304.787 166.318 307.889C166.523 308.095 166.523 308.3 166.728 308.3C172.661 311.776 177.16 313.622 179.812 314.032C185.131 314.238 194.525 306.876 207.548 292.96C215.121 285.188 223.695 275.159 233.716 263.5C234.252 263.005 234.733 262.455 235.151 261.859C245.775 263.065 249.622 248.981 246.005 245.288C245.284 244.374 244.278 243.728 243.147 243.454L247.645 234.245L268.7 233.629C269.286 233.65 269.869 233.532 270.402 233.285C270.934 233.037 271.4 232.667 271.763 232.205C275.236 233.835 277.286 235.681 277.684 237.516C278.504 242.017 271.558 247.75 264.419 254.086C255.977 261.255 246.632 269.233 246.017 277.826C244.997 278.214 244.129 278.919 243.541 279.839C242.953 280.758 242.675 281.842 242.749 282.931L243.364 290.51C243.497 291.792 244.126 292.971 245.118 293.794C246.11 294.616 247.384 295.017 248.668 294.909C249.951 294.802 251.141 294.195 251.983 293.219C252.824 292.243 253.25 290.976 253.168 289.689L252.565 282.122C252.481 281.108 252.078 280.147 251.416 279.375C250.753 278.604 249.864 278.061 248.875 277.826C249.49 270.259 258.281 262.884 266.252 256.102C274.428 249.15 281.591 243.007 280.361 237.081C279.77 234.209 277.358 231.554 272.8 229.502ZM181.838 287.807C177.943 282.291 174.265 277.174 170.985 272.672C168.947 269.812 166.897 267.145 164.859 264.49C167.717 259.167 169.562 249.355 170.985 235.645C181.838 243.212 210.852 256.717 221.887 258.962L181.838 287.807ZM129.297 210.687C130.816 210.365 132.222 209.645 133.372 208.602C134.522 207.559 135.376 206.229 135.845 204.749C137.473 200.657 137.473 196.976 135.64 193.5C132.167 198.618 128.477 204.133 125.209 210.071C126.44 210.801 127.906 211.021 129.297 210.687Z" fill="black"/>
<path fill-rule="evenodd" clip-rule="evenodd" d="M61.1997 214.488C64.5762 217.735 70.6419 218.193 77.19 215.224C73.8134 212.05 72.4387 207.078 73.1261 200.319L63.9974 202.625C64.3828 204.688 64.3331 206.809 63.8513 208.852C63.3695 210.895 62.4663 212.815 61.1997 214.488Z" fill="#FFC78F"/>
<path fill-rule="evenodd" clip-rule="evenodd" d="M61.1997 203.566C69.44 207.854 74.8867 208.751 77.5397 206.257C79.8189 203.771 79.6018 195.287 76.8523 180.913L62.5141 184.533L61.1997 203.566Z" fill="#FFC78F"/>
<path fill-rule="evenodd" clip-rule="evenodd" d="M71.7513 190.459C76.4423 189.252 79.0591 194.804 83.738 193.694C85.2927 193.383 86.7349 192.659 87.9128 191.597C89.0906 190.535 89.9605 189.174 90.4308 187.659C92.3603 182.349 92.0829 177.654 88.5014 173.382C86.2946 170.835 83.328 169.387 80.2289 170.835C77.7447 172.042 79.8791 176.001 77.4673 177.388C74.6455 178.97 72.1614 176.483 69.2672 176.182C65.8183 175.494 62.0318 176.664 62.4418 181.914C58.3779 184.883 58.3055 184.738 57.0634 187.563C56.3037 189.288 56.5811 190.532 56.7861 192.39C57.062 193.763 57.4082 195.12 57.8231 196.457C58.0281 197.423 57.9679 198.038 58.1005 199.004C58.0832 199.834 58.2479 200.658 58.5829 201.418C59.4408 203.278 60.9329 204.771 62.7915 205.63C64.8536 206.668 66.4092 207.211 68.7125 206.523C69.9184 206.185 70.1596 205.316 71.1243 204.531C71.8116 203.831 72.6317 203.699 72.7764 202.733C73.3311 199.631 67.5307 197.906 69.6772 195.287C70.8831 193.971 72.7764 198.316 73.5361 198.111C74.2958 197.906 73.3914 195.769 72.909 194.321C72.4267 192.873 70.8469 192.595 71.0519 191.147C71.0952 190.98 71.1832 190.827 71.3064 190.706C71.4296 190.585 71.5834 190.5 71.7513 190.459Z" fill="black"/>
<path fill-rule="evenodd" clip-rule="evenodd" d="M189.701 244.757C189.255 245.3 188.821 245.783 188.386 246.314C160.711 279.25 142.683 297.341 134.302 296.858C129.647 296.279 118.625 290.691 104.685 280.071C105.891 279.105 107.301 277.995 108.809 276.727C115.007 271.441 122.472 263.778 125.523 255.583C128.923 260.193 132.505 265.238 136.376 270.669L185.034 235.79L189.701 244.757Z" fill="#FFC78F"/>
<path fill-rule="evenodd" clip-rule="evenodd" d="M128.284 176.568C128.284 177.871 128.188 179.187 128.139 180.442C126.403 222.357 123.195 246.99 116.37 251.648C112.342 254.062 100.175 256.403 82.6768 256.548C83.316 254.135 84.0395 251.117 84.5701 247.822C85.8363 240.4 86.4152 231.614 84.1842 224.433C89.659 225.99 95.58 227.788 101.923 229.731L119.083 172.344L128.284 176.568Z" fill="#FFC78F"/>
<path fill-rule="evenodd" clip-rule="evenodd" d="M99.1133 321.793C92.4758 326.033 85.1194 329.023 77.407 330.615C58.9929 334.405 38.4443 330.47 23.3222 315.722C24.7211 271.55 31.2088 223.274 44.5341 217.65C62.6226 212.823 79.2883 213.571 94.3621 219.69C93.8797 235.935 93.8315 251.262 94.3621 265.552C94.3621 267.628 94.4585 269.715 94.555 271.755C95.1218 288.508 96.6437 305.214 99.1133 321.793Z" fill="url(#paint37_linear_1_15)"/>
<path fill-rule="evenodd" clip-rule="evenodd" d="M125.523 255.583C122.472 263.778 115.007 271.441 108.809 276.727C107.301 277.995 105.951 279.141 104.685 280.071C101.441 277.596 98.0521 274.833 94.555 271.828C91.6005 269.257 88.5978 266.493 85.4987 263.584L86.8252 257.128L94.3862 219.714C100.91 224.192 111.329 236.176 125.523 255.583Z" fill="url(#paint38_linear_1_15)"/>
<path fill-rule="evenodd" clip-rule="evenodd" d="M184.998 235.79C185.191 228.633 189.701 224.276 189.701 228.959C189.701 232.58 188.76 235.331 191.739 231.3C194.717 227.269 196.743 224.349 200.506 228.114C204.268 231.88 200.301 245.952 189.653 244.757C179.005 243.562 184.998 235.79 184.998 235.79Z" fill="#FFC78F"/>
<path fill-rule="evenodd" clip-rule="evenodd" d="M208.706 202.938L192.667 237.335C192.182 238.395 191.492 239.349 190.636 240.141C189.78 240.933 188.776 241.547 187.682 241.949C186.588 242.351 185.425 242.532 184.261 242.481C183.096 242.431 181.953 242.15 180.898 241.655C178.57 246.652 119.397 219.05 121.664 214.005C120.603 213.52 119.648 212.828 118.856 211.971C118.064 211.113 117.45 210.107 117.05 209.01C116.649 207.913 116.47 206.748 116.523 205.581C116.576 204.415 116.86 203.27 117.359 202.214L120.361 195.769L133.349 167.758L196.647 197.29L208.706 202.938Z" fill="url(#paint39_linear_1_15)"/>
<path fill-rule="evenodd" clip-rule="evenodd" d="M155.694 218.326L113.56 165.44C113.065 164.815 112.754 164.065 112.661 163.273C112.568 162.481 112.697 161.679 113.033 160.956C113.37 160.233 113.901 159.618 114.567 159.181C115.233 158.743 116.007 158.499 116.804 158.477L184.335 156.751L226.469 209.637C226.965 210.259 227.277 211.008 227.371 211.799C227.465 212.59 227.337 213.391 227.001 214.113C226.666 214.835 226.136 215.449 225.471 215.886C224.806 216.323 224.032 216.566 223.237 216.588L155.694 218.326Z" fill="url(#paint40_linear_1_15)"/>
</g>
<defs>
<linearGradient id="paint0_linear_1_15" x1="241.193" y1="305.97" x2="142.499" y2="78.0719" gradientUnits="userSpaceOnUse">
<stop stop-color="#D1D646"/>
<stop offset="1" stop-color="#D3D398"/>
</linearGradient>
<linearGradient id="paint1_linear_1_15" x1="70.654" y1="213.873" x2="306.059" y2="213.873" gradientUnits="userSpaceOnUse">
<stop stop-color="#4AADFF"/>
<stop offset="1" stop-color="#D7EFFF"/>
</linearGradient>
<linearGradient id="paint2_linear_1_15" x1="180.801" y1="115.113" x2="303.731" y2="115.113" gradientUnits="userSpaceOnUse">
<stop stop-color="#4AADFF"/>
<stop offset="1" stop-color="#D7EFFF"/>
</linearGradient>
<linearGradient id="paint3_linear_1_15" x1="84.0757" y1="172.682" x2="155.441" y2="172.682" gradientUnits="userSpaceOnUse">
<stop stop-color="#4AADFF"/>
<stop offset="1" stop-color="#D7EFFF"/>
</linearGradient>
<linearGradient id="paint4_linear_1_15" x1="271.377" y1="197.423" x2="306.059" y2="197.423" gradientUnits="userSpaceOnUse">
<stop stop-color="#4AADFF"/>
<stop offset="1" stop-color="#D7EFFF"/>
</linearGradient>
<linearGradient id="paint5_linear_1_15" x1="109.882" y1="83.227" x2="161.832" y2="83.227" gradientUnits="userSpaceOnUse">
<stop stop-color="#4AADFF"/>
<stop offset="1" stop-color="#D7EFFF"/>
</linearGradient>
<linearGradient id="paint6_linear_1_15" x1="476.264" y1="481.793" x2="373.288" y2="189.706" gradientUnits="userSpaceOnUse">
<stop stop-color="#191919"/>
<stop offset="1" stop-color="#6D6D6D"/>
</linearGradient>
<linearGradient id="paint7_linear_1_15" x1="450.538" y1="263.09" x2="433.737" y2="164.6" gradientUnits="userSpaceOnUse">
<stop stop-color="#191919"/>
<stop offset="1" stop-color="#353535"/>
</linearGradient>
<linearGradient id="paint8_linear_1_15" x1="577.677" y1="445.378" x2="475.69" y2="156.103" gradientUnits="userSpaceOnUse">
<stop stop-color="#191919"/>
<stop offset="1" stop-color="#6D6D6D"/>
</linearGradient>
<linearGradient id="paint9_linear_1_15" x1="556.2" y1="244.793" x2="539.749" y2="148.355" gradientUnits="userSpaceOnUse">
<stop stop-color="#191919"/>
<stop offset="1" stop-color="#353535"/>
</linearGradient>
<linearGradient id="paint10_linear_1_15" x1="376.884" y1="246.079" x2="413.001" y2="246.079" gradientUnits="userSpaceOnUse">
<stop stop-color="#0081FF"/>
<stop offset="1" stop-color="#A6D7FF"/>
</linearGradient>
<linearGradient id="paint11_linear_1_15" x1="361.25" y1="310.303" x2="397.367" y2="310.303" gradientUnits="userSpaceOnUse">
<stop stop-color="#0081FF"/>
<stop offset="1" stop-color="#A6D7FF"/>
</linearGradient>
<linearGradient id="paint12_linear_1_15" x1="431.003" y1="295.014" x2="467.12" y2="295.014" gradientUnits="userSpaceOnUse">
<stop stop-color="#0081FF"/>
<stop offset="1" stop-color="#A6D7FF"/>
</linearGradient>
<linearGradient id="paint13_linear_1_15" x1="357.75" y1="340.521" x2="390.78" y2="340.521" gradientUnits="userSpaceOnUse">
<stop stop-color="#4AADFF"/>
<stop offset="1" stop-color="#D7EFFF"/>
</linearGradient>
<linearGradient id="paint14_linear_1_15" x1="353.875" y1="365.735" x2="456.678" y2="365.735" gradientUnits="userSpaceOnUse">
<stop stop-color="#4AADFF"/>
<stop offset="1" stop-color="#D7EFFF"/>
</linearGradient>
<linearGradient id="paint15_linear_1_15" x1="393.8" y1="285.912" x2="458.485" y2="285.912" gradientUnits="userSpaceOnUse">
<stop stop-color="#4AADFF"/>
<stop offset="1" stop-color="#D7EFFF"/>
</linearGradient>
<linearGradient id="paint16_linear_1_15" x1="499.637" y1="279.054" x2="528.531" y2="279.054" gradientUnits="userSpaceOnUse">
<stop stop-color="#4AADFF"/>
<stop offset="1" stop-color="#D7EFFF"/>
</linearGradient>
<linearGradient id="paint17_linear_1_15" x1="496.734" y1="291.622" x2="525.628" y2="291.622" gradientUnits="userSpaceOnUse">
<stop stop-color="#4AADFF"/>
<stop offset="1" stop-color="#D7EFFF"/>
</linearGradient>
<linearGradient id="paint18_linear_1_15" x1="493.822" y1="310.974" x2="581.31" y2="310.974" gradientUnits="userSpaceOnUse">
<stop stop-color="#4AADFF"/>
<stop offset="1" stop-color="#D7EFFF"/>
</linearGradient>
<linearGradient id="paint19_linear_1_15" x1="490.919" y1="323.542" x2="578.407" y2="323.542" gradientUnits="userSpaceOnUse">
<stop stop-color="#4AADFF"/>
<stop offset="1" stop-color="#D7EFFF"/>
</linearGradient>
<linearGradient id="paint20_linear_1_15" x1="479.345" y1="357.081" x2="574.479" y2="357.081" gradientUnits="userSpaceOnUse">
<stop stop-color="#0081FF"/>
<stop offset="1" stop-color="#A6D7FF"/>
</linearGradient>
<linearGradient id="paint21_linear_1_15" x1="485.895" y1="43.5807" x2="534.404" y2="117.104" gradientUnits="userSpaceOnUse">
<stop stop-color="#4AADFF"/>
<stop offset="1" stop-color="#D7EFFF"/>
</linearGradient>
<linearGradient id="paint22_linear_1_15" x1="464.611" y1="57.6168" x2="513.131" y2="131.14" gradientUnits="userSpaceOnUse">
<stop stop-color="#4AADFF"/>
<stop offset="1" stop-color="#D7EFFF"/>
</linearGradient>
<linearGradient id="paint23_linear_1_15" x1="477.309" y1="53.5859" x2="520.893" y2="122.383" gradientUnits="userSpaceOnUse">
<stop stop-color="#0081FF"/>
<stop offset="1" stop-color="#A6D7FF"/>
</linearGradient>
<linearGradient id="paint24_linear_1_15" x1="351.98" y1="453.995" x2="387.409" y2="453.995" gradientUnits="userSpaceOnUse">
<stop stop-color="#C4D1D6"/>
<stop offset="1" stop-color="#4D7485"/>
</linearGradient>
<linearGradient id="paint25_linear_1_15" x1="349.954" y1="426.418" x2="431.304" y2="426.418" gradientUnits="userSpaceOnUse">
<stop stop-color="#0D3445"/>
<stop offset="1" stop-color="#11455C"/>
</linearGradient>
<linearGradient id="paint26_linear_1_15" x1="350.701" y1="505.747" x2="380.716" y2="505.747" gradientUnits="userSpaceOnUse">
<stop stop-color="#0D3445"/>
<stop offset="1" stop-color="#11455C"/>
</linearGradient>
<linearGradient id="paint27_linear_1_15" x1="401.385" y1="471.64" x2="421.621" y2="471.64" gradientUnits="userSpaceOnUse">
<stop stop-color="#C4D1D6"/>
<stop offset="1" stop-color="#4D7485"/>
</linearGradient>
<linearGradient id="paint28_linear_1_15" x1="403.11" y1="444.859" x2="472.281" y2="444.859" gradientUnits="userSpaceOnUse">
<stop stop-color="#0D3445"/>
<stop offset="1" stop-color="#11455C"/>
</linearGradient>
<linearGradient id="paint29_linear_1_15" x1="351.594" y1="487.595" x2="374.325" y2="487.595" gradientUnits="userSpaceOnUse">
<stop stop-color="#0D3445"/>
<stop offset="1" stop-color="#11455C"/>
</linearGradient>
<linearGradient id="paint30_linear_1_15" x1="413.794" y1="346.474" x2="455.464" y2="428.092" gradientUnits="userSpaceOnUse">
<stop stop-color="#F78D8B"/>
<stop offset="1" stop-color="#F97068"/>
</linearGradient>
<linearGradient id="paint31_linear_1_15" x1="397.37" y1="391.587" x2="375.458" y2="407.465" gradientUnits="userSpaceOnUse">
<stop stop-color="#191919"/>
<stop offset="1" stop-color="#353535"/>
</linearGradient>
<linearGradient id="paint32_linear_1_15" x1="351.316" y1="387.966" x2="388.217" y2="387.966" gradientUnits="userSpaceOnUse">
<stop stop-color="#191919"/>
<stop offset="1" stop-color="#353535"/>
</linearGradient>
<linearGradient id="paint33_linear_1_15" x1="64.8897" y1="479.581" x2="51.1821" y2="527.803" gradientUnits="userSpaceOnUse">
<stop stop-color="#88A2AE"/>
<stop offset="1" stop-color="#09232E"/>
</linearGradient>
<linearGradient id="paint34_linear_1_15" x1="25.2516" y1="397.875" x2="68.1336" y2="397.875" gradientUnits="userSpaceOnUse">
<stop stop-color="#88A2AE"/>
<stop offset="1" stop-color="#09232E"/>
</linearGradient>
<linearGradient id="paint35_linear_1_15" x1="25.4808" y1="468.381" x2="11.7731" y2="516.591" gradientUnits="userSpaceOnUse">
<stop stop-color="#88A2AE"/>
<stop offset="1" stop-color="#09232E"/>
</linearGradient>
<linearGradient id="paint36_linear_1_15" x1="13.7111" y1="400.735" x2="101.754" y2="400.735" gradientUnits="userSpaceOnUse">
<stop stop-color="#88A2AE"/>
<stop offset="1" stop-color="#09232E"/>
</linearGradient>
<linearGradient id="paint37_linear_1_15" x1="107.965" y1="325.498" x2="30.1464" y2="234.042" gradientUnits="userSpaceOnUse">
<stop stop-color="#0081FF"/>
<stop offset="1" stop-color="#A6D7FF"/>
</linearGradient>
<linearGradient id="paint38_linear_1_15" x1="139.499" y1="298.669" x2="61.6687" y2="207.213" gradientUnits="userSpaceOnUse">
<stop stop-color="#0081FF"/>
<stop offset="1" stop-color="#A6D7FF"/>
</linearGradient>
<linearGradient id="paint39_linear_1_15" x1="149.617" y1="231.059" x2="182.703" y2="160.742" gradientUnits="userSpaceOnUse">
<stop stop-color="#0081FF"/>
<stop offset="1" stop-color="#0062B2"/>
</linearGradient>
<linearGradient id="paint40_linear_1_15" x1="112.619" y1="187.538" x2="227.434" y2="187.538" gradientUnits="userSpaceOnUse">
<stop stop-color="#191919"/>
<stop offset="1" stop-color="#353535"/>
</linearGradient>
<clipPath id="clip0_1_15">
<rect width="629" height="520" fill="white"/>
</clipPath>
</defs>
</svg>
